<svg width="109" height="33" viewBox="0 0 109 33" fill="none" xmlns="http://www.w3.org/2000/svg">
<path d="M102.434 0H6.56627C2.93982 0 0 2.95492 0 6.6V26.4C0 30.0451 2.93982 33 6.56627 33H102.434C106.06 33 109 30.0451 109 26.4V6.6C109 2.95492 106.06 0 102.434 0Z" fill="#D6DEEA"/>
<path fill-rule="evenodd" clip-rule="evenodd" d="M34.8779 24.6708H35.7137C35.7354 24.455 35.7879 24.2563 35.8713 24.0742C35.9502 23.8976 36.0616 23.7377 36.1996 23.6029C36.3362 23.4709 36.4964 23.3686 36.6816 23.294C36.8661 23.2195 37.071 23.1818 37.2956 23.1818C37.5444 23.1818 37.7677 23.2254 37.9653 23.3125C38.1623 23.3996 38.3311 23.5198 38.4689 23.6729C38.6075 23.826 38.7132 24.0068 38.7868 24.2154C38.8603 24.4233 38.8971 24.6503 38.8971 24.8945V24.9632C38.8971 25.2074 38.8603 25.4338 38.7868 25.6423C38.7182 25.8424 38.6101 26.0265 38.4689 26.1835C38.3311 26.3353 38.1636 26.4541 37.9666 26.5399C37.7696 26.6264 37.5484 26.6693 37.3021 26.6693C37.071 26.6693 36.8615 26.631 36.6731 26.5544C36.4913 26.4815 36.3256 26.3731 36.1857 26.2355C36.0459 26.0979 35.9345 25.9337 35.8582 25.7525C35.7752 25.5581 35.7252 25.3511 35.7105 25.1401H34.8779V26.6072H34.2744V23.2439H34.8779V24.6708ZM36.3073 24.9632C36.3073 25.1308 36.327 25.2892 36.3684 25.4384C36.4098 25.5875 36.4721 25.7189 36.5549 25.8317C36.6383 25.9446 36.742 26.0344 36.8661 26.1004C36.9909 26.1664 37.1353 26.2 37.3021 26.2C37.4663 26.2 37.6107 26.167 37.7368 26.101C37.8616 26.0344 37.966 25.9446 38.048 25.8317C38.1301 25.7189 38.1925 25.5875 38.2339 25.4384C38.2766 25.2892 38.2976 25.1308 38.2976 24.9632V24.8945C38.2976 24.7289 38.2766 24.5711 38.2339 24.4207C38.1957 24.2787 38.1321 24.1449 38.0461 24.026C37.9634 23.9134 37.8566 23.8209 37.7335 23.7554C37.5982 23.6856 37.4476 23.6509 37.2956 23.6544C37.1314 23.6544 36.9876 23.6874 36.8648 23.7554C36.7429 23.8215 36.6371 23.9139 36.5549 24.026C36.469 24.1448 36.4057 24.2786 36.3684 24.4207C36.327 24.5751 36.3064 24.7345 36.3073 24.8945V24.9632ZM41.2629 25.1744H40.8249V26.6072H40.2221V23.2439H40.8249V24.6675H41.2176L42.3975 23.2439H43.1238L41.7363 24.8609L43.24 26.6072H42.4783L41.2629 25.1744ZM47.162 23.2439V26.6072H46.5592V23.7197H45.3694L45.3274 24.6833C45.3123 25.0021 45.2834 25.282 45.2414 25.5222C45.2093 25.7323 45.143 25.9357 45.0451 26.1241C44.9644 26.2764 44.8418 26.402 44.6918 26.4858C44.5447 26.567 44.3602 26.6072 44.1376 26.6072H43.9623L43.9754 26.0944L44.1054 26.0911C44.2067 26.0954 44.3068 26.0677 44.3917 26.0119C44.4744 25.9482 44.5369 25.8618 44.5716 25.7631C44.6176 25.6509 44.6511 25.505 44.6741 25.3268C44.6964 25.1486 44.7148 24.9341 44.7272 24.6833L44.7929 23.2445H47.162V23.2439ZM50.8207 26.6072C50.7964 26.5575 50.7789 26.5047 50.7689 26.4502C50.7556 26.3848 50.7449 26.319 50.7367 26.2528C50.6777 26.3112 50.6143 26.3648 50.5469 26.4132C50.3111 26.5821 50.0282 26.6718 49.7386 26.6693C49.5587 26.6693 49.3965 26.6429 49.2507 26.5914C49.1144 26.5451 48.9879 26.4735 48.8778 26.3802C48.7756 26.2936 48.6938 26.1854 48.638 26.0633C48.5823 25.9413 48.5541 25.8083 48.5554 25.674C48.5554 25.4945 48.5922 25.3354 48.6657 25.1975C48.7392 25.0595 48.8443 24.944 48.9809 24.851C49.1188 24.7579 49.2849 24.6873 49.4793 24.6398C49.6736 24.5923 49.891 24.5678 50.1306 24.5678H50.7268V24.3038C50.7268 24.1032 50.6645 23.9428 50.5391 23.824C50.4143 23.7046 50.2291 23.6452 49.9849 23.6452C49.8726 23.6452 49.7695 23.6597 49.6762 23.6887C49.5911 23.7139 49.5108 23.7532 49.4385 23.8049C49.3761 23.85 49.3237 23.9078 49.2849 23.9745C49.249 24.0357 49.2299 24.1054 49.2297 24.1765H48.6263C48.6263 24.0563 48.6591 23.9369 48.7248 23.8187C48.7911 23.7013 48.885 23.5943 49.0058 23.5006C49.1267 23.4062 49.2731 23.329 49.4451 23.2703C49.6172 23.2109 49.8089 23.1818 50.0203 23.1818C50.2107 23.1818 50.3861 23.2049 50.5469 23.2518C50.7085 23.298 50.8457 23.3686 50.9606 23.463C51.0749 23.5574 51.1642 23.6749 51.2298 23.8161C51.2942 23.9567 51.327 24.1217 51.327 24.3104V25.874C51.327 25.9875 51.3369 26.1076 51.3572 26.2324C51.3782 26.3578 51.4091 26.466 51.4498 26.5577V26.6072H50.8207ZM49.826 26.169C49.9336 26.169 50.0361 26.1545 50.1306 26.1254C50.2258 26.0964 50.3119 26.0588 50.39 26.0119C50.4643 25.9682 50.5324 25.9144 50.5922 25.8522C50.65 25.7915 50.6947 25.7294 50.7268 25.6654V24.9751H50.2278C49.8844 24.9751 49.6198 25.0265 49.4333 25.1295C49.2481 25.2318 49.1549 25.3869 49.1549 25.5941C49.1549 25.6747 49.1687 25.7506 49.1969 25.8205C49.2246 25.8906 49.2685 25.953 49.325 26.0027C49.3869 26.0562 49.4584 26.0975 49.5357 26.1241C49.6191 26.1538 49.7156 26.169 49.826 26.169ZM54.337 23.4366C54.5668 23.4366 54.7704 23.4749 54.9503 23.5514C55.1295 23.6287 55.2819 23.7349 55.4073 23.8722C55.532 24.0088 55.6286 24.1692 55.6942 24.3553C55.7599 24.5401 55.7927 24.7421 55.7927 24.9599V25.0312C55.7927 25.2655 55.7579 25.4826 55.6877 25.6826C55.6218 25.875 55.5169 26.0517 55.3797 26.2013C55.2416 26.3495 55.0737 26.4665 54.8872 26.5445C54.678 26.6309 54.4535 26.6735 54.2273 26.6699C54.0012 26.6735 53.7767 26.6309 53.5674 26.5445C53.3806 26.4662 53.2125 26.3489 53.0743 26.2003C52.936 26.0517 52.8308 25.8752 52.7657 25.6826C52.6928 25.4733 52.6566 25.2529 52.6586 25.0312V24.7236C52.6586 24.3421 52.6967 24.0088 52.7736 23.7224C52.8504 23.4366 52.9581 23.1944 53.0979 22.9951C53.2371 22.7964 53.4039 22.6387 53.5983 22.5232C53.7933 22.407 54.008 22.3271 54.2437 22.2836C54.3569 22.2652 54.4693 22.2423 54.5806 22.2149C54.6804 22.1905 54.7644 22.1595 54.8354 22.1225C54.8994 22.0905 54.9545 22.0428 54.9956 21.9839C55.0341 21.9231 55.0533 21.852 55.0507 21.78H55.5432C55.5432 21.9833 55.5104 22.1437 55.4447 22.2618C55.379 22.3799 55.2911 22.4723 55.1821 22.539C55.0653 22.608 54.9382 22.6576 54.8058 22.6862C54.6608 22.7191 54.5155 22.7505 54.3698 22.7806C54.2275 22.8105 54.0881 22.8533 53.9535 22.9086C53.8222 22.9621 53.7053 23.0347 53.6016 23.1264C53.4935 23.2232 53.4037 23.3388 53.3363 23.4676C53.2565 23.6236 53.2028 23.7917 53.1774 23.9653C53.3194 23.8084 53.489 23.6793 53.6777 23.5844C53.8714 23.4854 54.0914 23.4366 54.3376 23.4366H54.337ZM54.2208 23.9092C54.0566 23.9092 53.9141 23.9375 53.7933 23.995C53.6774 24.0479 53.5748 24.1264 53.4932 24.2246C53.4144 24.321 53.3553 24.4332 53.3179 24.5606C53.2799 24.6902 53.2608 24.8247 53.2614 24.9599V25.0312C53.2614 25.1889 53.2805 25.3387 53.3179 25.48C53.356 25.6225 53.4151 25.7466 53.4952 25.8535C53.5746 25.9604 53.6751 26.0449 53.7966 26.1083C53.9174 26.1716 54.0612 26.2033 54.2273 26.2033C54.3915 26.2033 54.5346 26.1716 54.6568 26.1083C54.7757 26.048 54.8791 25.9608 54.9588 25.8535C55.0376 25.7466 55.0967 25.6225 55.1348 25.4806C55.1742 25.3387 55.1939 25.1889 55.1939 25.0318V24.9592C55.1939 24.8206 55.1742 24.688 55.1348 24.5606C55.0985 24.4377 55.038 24.3235 54.9568 24.2246C54.874 24.1263 54.7704 24.0478 54.6535 23.995C54.5172 23.9349 54.3695 23.9057 54.2208 23.9092ZM59.0141 24.8945C59.0141 24.6503 59.0516 24.4233 59.1258 24.2154C59.2006 24.0068 59.3063 23.826 59.4436 23.6729C59.583 23.5181 59.7538 23.3952 59.9446 23.3125C60.1416 23.2254 60.3615 23.1818 60.6058 23.1818C60.854 23.1818 61.0773 23.2254 61.2756 23.3125C61.4725 23.3996 61.6406 23.5198 61.7792 23.6729C61.9171 23.826 62.0235 24.0068 62.097 24.2154C62.1705 24.4233 62.2066 24.6503 62.2066 24.8945V24.9632C62.2066 25.2074 62.1705 25.4338 62.097 25.6423C62.0284 25.8424 61.9203 26.0265 61.7792 26.1835C61.6413 26.3353 61.4732 26.4541 61.2769 26.5399C61.0799 26.6264 60.8586 26.6693 60.6124 26.6693C60.3655 26.6693 60.1442 26.6264 59.9479 26.5406C59.7509 26.4548 59.5834 26.3353 59.4449 26.1829C59.3037 26.0256 59.1952 25.8416 59.1258 25.6417C59.0497 25.4237 59.0119 25.1941 59.0141 24.9632V24.8945ZM59.6169 24.9632C59.6169 25.1308 59.6373 25.2892 59.6786 25.4384C59.7194 25.5875 59.7817 25.7189 59.8651 25.8317C59.9479 25.9446 60.0516 26.0344 60.1764 26.1004C60.3005 26.1664 60.4456 26.2 60.6124 26.2C60.7765 26.2 60.921 26.167 61.0464 26.101C61.1718 26.0344 61.2756 25.9446 61.3576 25.8317C61.4397 25.7189 61.5021 25.5875 61.5441 25.4384C61.5861 25.2892 61.6071 25.1308 61.6071 24.9632V24.8945C61.6071 24.7289 61.5861 24.5711 61.5441 24.4207C61.506 24.2787 61.4423 24.1449 61.3563 24.026C61.2734 23.9133 61.1664 23.8208 61.0431 23.7554C60.9079 23.6857 60.7576 23.651 60.6058 23.6544C60.4416 23.6544 60.2972 23.6874 60.1744 23.7554C60.0527 23.8216 59.9471 23.914 59.8651 24.026C59.7817 24.1382 59.7194 24.2702 59.6786 24.4207C59.637 24.5751 59.6162 24.7345 59.6169 24.8945V24.9632ZM66.3132 23.2439V26.6072H65.7104V23.7197H64.5206L64.4786 24.6833C64.4675 24.9645 64.439 25.2446 64.3932 25.5222C64.361 25.7324 64.2944 25.9357 64.1962 26.1241C64.1158 26.2763 63.9933 26.4019 63.8436 26.4858C63.6965 26.567 63.512 26.6072 63.2894 26.6072H63.1141L63.1272 26.0944L63.2566 26.0911C63.3581 26.0955 63.4585 26.0678 63.5435 26.0119C63.6262 25.9482 63.6887 25.8618 63.7235 25.7631C63.7694 25.6509 63.8029 25.505 63.8259 25.3268C63.8482 25.1486 63.8659 24.9341 63.8791 24.6833L63.9441 23.2445H66.3132V23.2439ZM70.0763 23.2439H70.6758V26.6072H70.0763V24.1547L68.459 26.6072H67.8589V23.2439H68.459V25.6991L70.0763 23.2439ZM75.0352 26.6072H74.4357V25.1711H72.825V26.6072H72.2215V23.2439H72.825V24.7018H74.4357V23.2439H75.0352V26.6072ZM78.795 23.7197H77.1777V26.6072H76.5743V23.2439H78.795V23.7191V23.7197ZM42.3929 18.5196L42.2347 18.0675L41.8703 17.0273C41.7494 16.6803 41.6281 16.3333 41.5065 15.9865L41.3476 15.5351H37.2089L36.1635 18.5189H34.801L38.637 8.09357H39.9201L43.7561 18.5189H42.3929V18.5196ZM39.2569 9.67559L39.0875 10.1561C38.9481 10.5517 38.8097 10.9477 38.6725 11.3441C38.5097 11.8166 38.3442 12.2885 38.1787 12.7604C38.0132 13.233 37.8734 13.629 37.7604 13.9491L37.591 14.4296H40.9661L39.3002 9.67559H39.2569ZM48.7018 10.659C49.692 10.659 50.4944 11.022 51.1103 11.75C51.7256 12.4773 52.0329 13.4356 52.0329 14.6256C52.0329 15.8149 51.7275 16.7739 51.1175 17.5012C50.5069 18.2285 49.711 18.5922 48.7307 18.5922C48.1778 18.5922 47.688 18.4754 47.2599 18.2417C46.8383 18.0141 46.4887 17.6723 46.2506 17.255H46.2217V21.12H44.9676V10.7303H46.1567V11.9948H46.1856C46.4115 11.5903 46.7529 11.2662 47.21 11.0233C47.6695 10.7794 48.1821 10.6539 48.7018 10.6583V10.659ZM48.4713 17.4722C49.1588 17.4722 49.7104 17.2135 50.126 16.6954C50.5417 16.1773 50.7498 15.4876 50.7498 14.6256C50.7498 13.763 50.5417 13.0733 50.126 12.5552C49.7104 12.0377 49.1588 11.779 48.4713 11.779C47.8029 11.779 47.2599 12.041 46.8416 12.5664C46.4233 13.0911 46.2145 13.7775 46.2145 14.6256C46.2145 15.473 46.4233 16.1594 46.8416 16.6848C47.2599 17.2095 47.8029 17.4722 48.4713 17.4722ZM57.2675 10.659C58.2577 10.659 59.0601 11.022 59.6754 11.75C60.2906 12.4773 60.5986 13.4356 60.5986 14.6256C60.5986 15.8149 60.2932 16.7739 59.6826 17.5012C59.0719 18.2285 58.2774 18.5922 57.2964 18.5922C56.7435 18.5922 56.253 18.4754 55.8256 18.2417C55.404 18.0141 55.0544 17.6723 54.8163 17.255H54.7874V21.12H53.5333V10.7303H54.7218V11.9948H54.7513C54.9772 11.5903 55.3186 11.2662 55.775 11.0233C56.2347 10.7793 56.7476 10.6538 57.2675 10.6583V10.659ZM57.037 17.4722C57.7239 17.4722 58.2754 17.2135 58.6917 16.6954C59.1074 16.1773 59.3155 15.4876 59.3155 14.6256C59.3155 13.763 59.1074 13.0733 58.6917 12.5552C58.2754 12.0377 57.7239 11.779 57.037 11.779C56.3686 11.779 55.8256 12.041 55.4073 12.5664C54.989 13.0911 54.7802 13.7775 54.7802 14.6256C54.7802 15.473 54.989 16.1594 55.4073 16.6848C55.8256 17.2095 56.3686 17.4722 57.037 17.4722ZM65.4727 15.6512C65.5351 16.5713 65.9186 17.3078 66.6225 17.8622C67.3264 18.4166 68.2292 18.6932 69.3297 18.6932C70.5268 18.6932 71.4749 18.4147 72.1742 17.8583C72.8736 17.3026 73.2235 16.5475 73.2235 15.5938C73.2235 14.8467 72.9871 14.2494 72.5163 13.8019C72.0455 13.3538 71.2714 12.9947 70.1952 12.7255L69.1065 12.4364C68.4 12.2529 67.8917 12.0351 67.5811 11.783C67.2712 11.5295 67.1162 11.2055 67.1162 10.8108C67.1162 10.3 67.329 9.88613 67.7545 9.56801C68.18 9.24989 68.7289 9.09083 69.402 9.09083C70.0796 9.09083 70.6299 9.25253 71.0527 9.57527C71.4762 9.89801 71.7159 10.3389 71.7737 10.8973H73.0718C73.043 10.0208 72.6897 9.30533 72.0121 8.75159C71.3344 8.19719 70.4788 7.92065 69.4446 7.92065C68.3638 7.92065 67.4807 8.19521 66.7952 8.74433C66.1103 9.29345 65.7682 10.0016 65.7682 10.8682C65.7682 12.2318 66.6908 13.1492 68.5365 13.6211L69.8708 13.9682C70.5721 14.1464 71.0829 14.3774 71.4027 14.6612C71.7225 14.9457 71.882 15.3094 71.882 15.7522C71.882 16.2631 71.6522 16.6855 71.1939 17.0207C70.7343 17.3554 70.1545 17.5223 69.4525 17.5223C68.7119 17.5223 68.0966 17.3514 67.6067 17.0095C67.1162 16.6676 66.8398 16.2149 66.7774 15.6512H65.4727ZM75.1698 8.97533V10.7309H74.0883V11.7718H75.1698V16.4967C75.1698 17.2432 75.3201 17.7771 75.6202 18.0972C75.921 18.4173 76.422 18.5777 77.1239 18.5777C77.273 18.5777 77.4259 18.5711 77.5816 18.5592C77.7378 18.5473 77.8547 18.5315 77.9315 18.513V17.4504C77.8882 17.455 77.8068 17.4623 77.686 17.4722C77.5877 17.4808 77.4891 17.4857 77.3905 17.4867C77.0589 17.4867 76.8153 17.4022 76.659 17.2339C76.5027 17.065 76.4246 16.8023 76.4246 16.4459V11.7718H77.9388V10.7309H76.4246V8.97533H75.1704H75.1698ZM82.7118 18.5915C81.6205 18.5915 80.7504 18.2318 80.1017 17.5118C79.4529 16.7917 79.1279 15.8294 79.1279 14.6256C79.1279 13.4165 79.4529 12.4529 80.1017 11.7355C80.7504 11.018 81.6205 10.659 82.7118 10.659C83.8024 10.659 84.6725 11.018 85.3219 11.7355C85.9706 12.4529 86.295 13.4165 86.295 14.6256C86.295 15.8294 85.9706 16.7917 85.3219 17.5118C84.6725 18.2318 83.8024 18.5922 82.7118 18.5922V18.5915ZM82.7118 17.4722C83.4374 17.4722 84.0034 17.2201 84.4098 16.7171C84.8156 16.2136 85.0185 15.5159 85.0185 14.6249C85.0185 13.7293 84.8156 13.031 84.4098 12.5301C84.0034 12.0292 83.438 11.779 82.7118 11.779C81.9856 11.779 81.4195 12.0305 81.0138 12.5341C80.6073 13.037 80.4044 13.7346 80.4044 14.6256C80.4044 15.5166 80.6086 16.2136 81.017 16.7171C81.4261 17.2201 81.9908 17.4722 82.7111 17.4722H82.7118ZM87.7941 18.5196H89.0489V13.7009C89.0489 13.1518 89.2019 12.7083 89.5072 12.371C89.8125 12.0344 90.217 11.8655 90.722 11.8655C90.8756 11.8655 91.0161 11.8727 91.1435 11.8873C91.2709 11.9018 91.3589 11.9183 91.4068 11.9374V10.7026C91.2355 10.6733 91.0619 10.6588 90.8881 10.659C90.4357 10.659 90.0384 10.7791 89.6944 11.02C89.3568 11.2525 89.1128 11.5984 89.0062 11.9955H88.9773V10.7309H87.7947V18.5196H87.7941ZM95.7544 11.7645C95.1437 11.7645 94.6381 11.9665 94.2369 12.3717C93.8357 12.7756 93.6131 13.3082 93.5698 13.9682H97.8457C97.8313 13.3082 97.633 12.7756 97.2508 12.371C96.8687 11.9665 96.3696 11.7638 95.7544 11.7638V11.7645ZM97.8162 16.2941H99.0572C98.9508 16.964 98.5956 17.5144 97.9895 17.9454C97.3841 18.3764 96.6651 18.5922 95.8338 18.5922C94.7425 18.5922 93.8764 18.2365 93.2349 17.5263C92.5927 16.8155 92.2723 15.8585 92.2723 14.6546C92.2723 13.4455 92.5914 12.4766 93.2309 11.75C93.8705 11.0227 94.7189 10.659 95.776 10.659C96.8142 10.659 97.6363 11.0009 98.2417 11.6846C98.8477 12.3691 99.1504 13.301 99.1504 14.4811V14.9721H93.5698V15.0447C93.5698 15.7865 93.7792 16.3786 94.1968 16.8221C94.6151 17.2649 95.1706 17.4867 95.8627 17.4867C96.3486 17.4867 96.7675 17.3791 97.1208 17.1653C97.4741 16.9508 97.7059 16.6604 97.8168 16.2941H97.8162Z" fill="#295091"/>
<path d="M24.7573 25.016C23.8485 26.3439 22.9089 27.6632 21.4256 27.691C19.9652 27.7187 19.4977 26.8264 17.8312 26.8264C16.1633 26.8264 15.642 27.6632 14.2637 27.7187C12.8316 27.7721 11.7423 26.2845 10.8263 24.9625C8.9549 22.2605 7.5274 17.3217 9.44737 13.9887C10.3995 12.3334 12.1034 11.286 13.9499 11.2583C15.3564 11.2319 16.6854 12.206 17.5442 12.206C18.4044 12.206 20.0171 11.0372 21.7125 11.2088C22.4223 11.2378 24.4139 11.4946 25.693 13.365C25.5918 13.4317 23.316 14.7556 23.3436 17.5131C23.3711 20.8078 26.2314 21.9021 26.2649 21.9173C26.2386 21.9952 25.8079 23.4808 24.7573 25.016ZM18.5285 7.59C19.3132 6.66996 20.6402 5.9862 21.7348 5.94C21.8747 7.21776 21.3605 8.49684 20.6015 9.4182C19.8398 10.3389 18.5948 11.055 17.3722 10.96C17.2061 9.70992 17.8226 8.40642 18.5279 7.59H18.5285Z" fill="#295091"/>
</svg>
