<svg width="14" height="17" viewBox="0 0 14 17" fill="none" xmlns="http://www.w3.org/2000/svg">
<path d="M3.11111 7.61108H4.66667V9.27775H3.11111V7.61108ZM14 3.44442V15.1111C14 16.0278 13.3 16.7778 12.4444 16.7778H1.55556C1.143 16.7778 0.747335 16.6022 0.455612 16.2896C0.163888 15.977 0 15.5531 0 15.1111L0.00777777 3.44442C0.00777777 2.52775 0.692222 1.77775 1.55556 1.77775H2.33333V0.111084H3.88889V1.77775H10.1111V0.111084H11.6667V1.77775H12.4444C13.3 1.77775 14 2.52775 14 3.44442ZM1.55556 5.11108H12.4444V3.44442H1.55556V5.11108ZM12.4444 15.1111V6.77775H1.55556V15.1111H12.4444ZM9.33333 9.27775H10.8889V7.61108H9.33333V9.27775ZM6.22222 9.27775H7.77778V7.61108H6.22222V9.27775Z" fill="#7688A4"/>
</svg>
