<svg width="111" height="33" viewBox="0 0 111 33" fill="none" xmlns="http://www.w3.org/2000/svg">
<path d="M107.616 0H3.38415C1.51513 0 0 1.50761 0 3.36735V29.6327C0 31.4924 1.51513 33 3.38415 33H107.616C109.485 33 111 31.4924 111 29.6327V3.36735C111 1.50761 109.485 0 107.616 0Z" fill="#295091" fill-opacity="0.19"/>
<path fill-rule="evenodd" clip-rule="evenodd" d="M36.8059 24.2247H37.7291C37.7528 23.9755 37.8104 23.7452 37.9024 23.5337C37.9945 23.3229 38.1156 23.1411 38.2659 22.9882C38.4174 22.8352 38.598 22.7136 38.7972 22.6306C39.012 22.5419 39.2428 22.4977 39.4754 22.5006C39.7495 22.5006 39.9958 22.5511 40.2138 22.6521C40.4324 22.7532 40.6179 22.8919 40.7701 23.0697C40.9231 23.2475 41.0402 23.4569 41.1207 23.698C41.202 23.9391 41.2426 24.2011 41.2426 24.484V24.5634C41.2426 24.8463 41.202 25.109 41.1207 25.3501C41.0395 25.5912 40.9231 25.7999 40.7701 25.9764C40.6174 26.1526 40.428 26.2937 40.2151 26.3899C39.9847 26.4925 39.7345 26.5435 39.4821 26.5394C39.2442 26.5429 39.0081 26.4977 38.7884 26.4067C38.5856 26.3212 38.4023 26.1957 38.2496 26.0377C38.0948 25.8754 37.9722 25.6855 37.8882 25.478C37.7965 25.2517 37.7416 25.0123 37.7258 24.7689H36.8059V26.4673H36.1406V22.5727H36.8059V24.2254V24.2247ZM38.3836 24.5634C38.3836 24.7581 38.4067 24.9413 38.4513 25.1143C38.4973 25.2868 38.5664 25.439 38.6578 25.5696C38.7491 25.7003 38.8642 25.804 39.0009 25.8808C39.1383 25.9575 39.2987 25.9959 39.4821 25.9959C39.6442 25.9991 39.8045 25.9618 39.9483 25.8873C40.0921 25.8128 40.2148 25.7036 40.3052 25.5696C40.3959 25.439 40.4642 25.2868 40.5109 25.1143C40.5576 24.9413 40.5806 24.7574 40.5806 24.5634V24.484C40.5816 24.2988 40.5581 24.1142 40.5109 23.9351C40.4691 23.7719 40.3988 23.6174 40.3031 23.4785C40.2133 23.3495 40.0953 23.2424 39.9579 23.1653C39.8101 23.0849 39.6438 23.0445 39.4754 23.0481C39.294 23.0481 39.1349 23.0872 38.9996 23.1653C38.8635 23.2428 38.7491 23.3472 38.6578 23.4785C38.5622 23.6172 38.4925 23.7718 38.452 23.9351C38.4067 24.1095 38.3843 24.292 38.3843 24.484V24.5634H38.3836ZM43.8538 24.8079H43.3712V26.4673H42.7052V22.5727H43.3712V24.2213H43.8044L45.1059 22.5727H45.9073L44.3763 24.4449L46.0365 26.4673H45.1952L43.8538 24.8079ZM50.3649 22.5727V26.4673H49.6995V23.1236H48.3865L48.3398 24.2395C48.3236 24.6092 48.2917 24.9332 48.245 25.2113C48.21 25.4533 48.1369 25.6883 48.0285 25.9077C47.9418 26.082 47.8064 26.2276 47.6386 26.3273C47.4762 26.4209 47.2731 26.4673 47.0267 26.4673H46.8339L46.8474 25.8733L46.9909 25.87C47.1037 25.8749 47.215 25.8427 47.3076 25.7784C47.4001 25.703 47.4691 25.6031 47.5066 25.4901C47.5567 25.3595 47.5946 25.1911 47.619 24.985C47.644 24.7783 47.6636 24.5298 47.6779 24.2395L47.7496 22.5727H50.3649ZM54.4042 26.4673C54.3771 26.4095 54.3577 26.3484 54.3467 26.2855C54.3319 26.2099 54.32 26.1337 54.3108 26.0572C54.2459 26.1244 54.1757 26.1863 54.101 26.2424C53.8453 26.4382 53.5308 26.5426 53.2082 26.5387C53.0249 26.5418 52.8426 26.5117 52.6702 26.4498C52.5091 26.3892 52.3723 26.3084 52.2586 26.2047C52.1463 26.1027 52.0568 25.9783 51.996 25.8397C51.9334 25.6972 51.9016 25.5432 51.9026 25.3878C51.9026 25.179 51.9432 24.9945 52.0245 24.8355C52.1061 24.6753 52.226 24.5375 52.3737 24.4341C52.5246 24.3264 52.7081 24.2442 52.9226 24.189C53.158 24.1313 53.3997 24.1035 53.6421 24.1062H54.3V23.8004C54.3 23.5674 54.2309 23.3822 54.0928 23.2441C53.9541 23.1061 53.7504 23.0374 53.481 23.0374C53.3658 23.0361 53.2511 23.0532 53.1412 23.0879C53.0383 23.1215 52.9504 23.166 52.8779 23.2226C52.8082 23.2754 52.7504 23.3422 52.7081 23.4185C52.6681 23.4903 52.6472 23.5709 52.6471 23.6529H51.9818C51.9818 23.5135 52.0184 23.3754 52.0908 23.2387C52.1632 23.102 52.2668 22.9788 52.4001 22.8697C52.5341 22.7606 52.6952 22.6717 52.8854 22.6036C53.0749 22.535 53.2861 22.5006 53.5202 22.5006C53.7301 22.5006 53.9236 22.5275 54.1016 22.5814C54.279 22.6353 54.4313 22.7175 54.5578 22.8266C54.6844 22.9357 54.7832 23.0724 54.855 23.2354C54.926 23.3983 54.9619 23.5889 54.9619 23.8078V25.6181C54.9619 25.7501 54.9734 25.8888 54.9957 26.0336C55.0187 26.1791 55.0526 26.3044 55.0979 26.4101V26.4673H54.4042ZM53.3057 25.9602C53.4248 25.9602 53.5372 25.9434 53.6421 25.9097C53.747 25.876 53.8424 25.8323 53.9277 25.7784C54.0137 25.7245 54.0881 25.6625 54.1511 25.5932C54.2147 25.5231 54.2641 25.4517 54.3 25.377V24.5776H53.749C53.37 24.5776 53.0776 24.6375 52.8725 24.7561C52.7755 24.8079 52.6952 24.8858 52.6407 24.981C52.5863 25.0762 52.5599 25.1847 52.5646 25.2942C52.5646 25.3878 52.5801 25.4753 52.6119 25.5568C52.6418 25.637 52.69 25.7092 52.7527 25.7676C52.8157 25.8262 52.8935 25.8733 52.9856 25.9077C53.0769 25.9427 53.1839 25.9602 53.3057 25.9602ZM58.2851 22.7963C58.5383 22.7963 58.7636 22.8407 58.962 22.9289C59.1596 23.0178 59.3274 23.1418 59.4662 23.3C59.6043 23.4583 59.7099 23.6448 59.783 23.8597C59.8554 24.0745 59.8912 24.3082 59.8912 24.5601V24.6429C59.8912 24.9136 59.8527 25.1649 59.7755 25.3972C59.7039 25.6181 59.5884 25.8224 59.4357 25.9979C59.2853 26.1679 59.0996 26.3035 58.8916 26.3953C58.6622 26.4945 58.4141 26.5436 58.164 26.5394C57.9136 26.5439 57.6653 26.4947 57.4357 26.3953C57.2276 26.3035 57.042 26.1679 56.8915 25.9979C56.7386 25.822 56.6224 25.6176 56.5497 25.3965C56.4692 25.1532 56.4295 24.8984 56.432 24.6422V24.286C56.432 23.8449 56.4746 23.4583 56.5592 23.1276C56.6298 22.8288 56.7507 22.5439 56.9166 22.2851C57.0709 22.0548 57.255 21.8723 57.4695 21.7376C57.6841 21.6029 57.9217 21.5113 58.1816 21.4608C58.3196 21.4365 58.4442 21.4103 58.5538 21.3813C58.6635 21.353 58.7569 21.3166 58.8347 21.2735C58.9062 21.2357 58.9669 21.1806 59.0114 21.1133C59.054 21.0421 59.0751 20.9603 59.0723 20.8775H59.6164C59.6164 21.1133 59.5799 21.2985 59.5068 21.4352C59.4401 21.5654 59.3402 21.676 59.2171 21.7558C59.0895 21.8356 58.9492 21.8934 58.8022 21.9268C58.6466 21.9639 58.4855 22.0009 58.3217 22.0366C58.1592 22.0723 58.0056 22.1214 57.8614 22.1848C57.7185 22.2459 57.5872 22.3309 57.4729 22.436C57.3585 22.5417 57.2611 22.6737 57.1799 22.832C57.0986 22.9902 57.0404 23.1822 57.0039 23.4078C57.1592 23.2281 57.3467 23.0788 57.5569 22.9673C57.7814 22.8507 58.0318 22.7918 58.2851 22.7963ZM58.1565 23.3431C57.9751 23.3431 57.8181 23.3768 57.6841 23.4421C57.5508 23.5081 57.4404 23.597 57.3531 23.7088C57.2641 23.8246 57.1985 23.9566 57.1602 24.0974C57.1178 24.248 57.0967 24.4037 57.0973 24.5601V24.6429C57.0973 24.8247 57.1183 24.9985 57.1602 25.1628C57.2015 25.3272 57.2665 25.4713 57.3552 25.5945C57.4431 25.7184 57.5542 25.8168 57.6875 25.8902C57.8215 25.9629 57.9799 26 58.164 26C58.3447 26 58.5024 25.9629 58.6378 25.8902C58.7731 25.8161 58.8834 25.7184 58.9708 25.5945C59.0574 25.4713 59.1224 25.3272 59.1657 25.1628C59.2093 24.993 59.2309 24.8182 59.23 24.6429V24.5601C59.23 24.3984 59.2083 24.2449 59.1657 24.0974C59.126 23.9564 59.0591 23.8244 58.9687 23.7088C58.879 23.5959 58.7647 23.5047 58.6344 23.4421C58.4849 23.373 58.3213 23.3391 58.1565 23.3431ZM63.4473 24.484C63.4473 24.2011 63.4879 23.9385 63.5705 23.698C63.6462 23.4684 63.7652 23.2551 63.9211 23.0697C64.0727 22.8919 64.2568 22.7532 64.4741 22.6521C64.6906 22.5511 64.9343 22.5006 65.2037 22.5006C65.4778 22.5006 65.7248 22.5511 65.9428 22.6521C66.1607 22.7532 66.3462 22.8919 66.4991 23.0697C66.6514 23.2475 66.7685 23.4569 66.8497 23.698C66.9309 23.9391 66.9716 24.2011 66.9716 24.484V24.5634C66.9716 24.8463 66.9309 25.109 66.8497 25.3501C66.7685 25.5912 66.6514 25.7999 66.4991 25.9764C66.3464 26.1526 66.157 26.2937 65.9441 26.3899C65.7275 26.4896 65.4825 26.5394 65.2111 26.5394C64.939 26.5394 64.6947 26.4896 64.4774 26.3899C64.2645 26.2937 64.0752 26.1526 63.9224 25.9764C63.7655 25.7922 63.646 25.5795 63.5705 25.3501C63.4863 25.0964 63.4446 24.8306 63.4473 24.5634V24.484ZM64.1126 24.5634C64.1126 24.7581 64.135 24.9413 64.1803 25.1143C64.2257 25.2868 64.2947 25.439 64.3861 25.5696C64.4781 25.7003 64.5925 25.804 64.7299 25.8808C64.8666 25.9575 65.0277 25.9959 65.2104 25.9959C65.3726 25.9992 65.5331 25.9619 65.677 25.8875C65.8209 25.813 65.9438 25.7037 66.0341 25.5696C66.1242 25.439 66.1932 25.2868 66.2392 25.1143C66.2866 24.9413 66.3096 24.7574 66.3096 24.5634V24.484C66.3103 24.2987 66.2867 24.1142 66.2392 23.9351C66.1976 23.772 66.1275 23.6174 66.0321 23.4785C65.9423 23.3495 65.8243 23.2424 65.6869 23.1653C65.5389 23.0848 65.3723 23.0444 65.2037 23.0481C65.0374 23.0444 64.8732 23.0848 64.7279 23.1653C64.5925 23.2428 64.4774 23.3472 64.3861 23.4785C64.2907 23.6173 64.2211 23.7719 64.1803 23.9351C64.135 24.1095 64.1126 24.292 64.1126 24.484V24.5634ZM71.5036 22.5727V26.4673H70.8383V23.1236H69.5252L69.4785 24.2395C69.4623 24.6092 69.4305 24.9332 69.3838 25.2113C69.3487 25.4533 69.2756 25.6883 69.1672 25.9077C69.0805 26.082 68.9452 26.2276 68.7773 26.3273C68.6149 26.4209 68.4118 26.4673 68.1655 26.4673H67.9726L67.9861 25.8733L68.1296 25.87C68.2424 25.8749 68.3537 25.8427 68.4464 25.7784C68.5388 25.703 68.6079 25.6031 68.6454 25.4901C68.6954 25.3595 68.7333 25.1911 68.7577 24.985C68.7827 24.7783 68.8024 24.5298 68.8166 24.2395L68.8883 22.5727H71.5036ZM75.6573 22.5727H76.3192V26.4673H75.6573V23.6273L73.8718 26.4673H73.2099V22.5727H73.8718V25.4167L75.6573 22.5727ZM81.1308 26.4673H80.4689V24.8045H78.6909V26.468H78.0249V22.5727H78.6909V24.2611H80.4689V22.5727H81.1308V26.4673ZM85.2805 23.1236H83.495V26.4673H82.8297V22.5727H85.2805V23.1236ZM81.3494 13.363C81.354 13.8085 81.2976 14.2526 81.1816 14.683C81.0837 15.0527 80.9173 15.4011 80.6909 15.71C80.4825 15.9901 80.2122 16.2189 79.901 16.3788C79.5904 16.5384 79.2357 16.6185 78.8377 16.6185C78.366 16.6185 77.9585 16.5364 77.6154 16.3727C77.2819 16.2171 76.9903 15.9849 76.7646 15.6952V18.9622H76.039V10.0953H76.7159L76.7524 11.0011C76.9758 10.6812 77.2587 10.4307 77.5998 10.2495C77.9416 10.0677 78.3477 9.97677 78.8195 9.97677C79.2215 9.97677 79.5802 10.0542 79.8956 10.2078C80.2094 10.3609 80.482 10.5862 80.6909 10.8651C80.9061 11.1493 81.0699 11.4914 81.1816 11.8921C81.2933 12.2922 81.3494 12.7407 81.3494 13.2391V13.363ZM80.6178 13.2384C80.62 12.8876 80.58 12.5378 80.4987 12.1965C80.43 11.8973 80.3083 11.6127 80.1393 11.356C79.983 11.1234 79.7726 10.9317 79.5261 10.7971C79.2783 10.661 78.988 10.593 78.6543 10.593C78.4169 10.5892 78.1805 10.6231 77.9538 10.6933C77.5824 10.8086 77.2584 11.0401 77.0299 11.3533C76.9223 11.5015 76.8336 11.6564 76.7646 11.818V14.8897C76.8418 15.0514 76.9385 15.2015 77.0543 15.3396C77.17 15.4777 77.3061 15.5975 77.4631 15.6979C77.6188 15.7989 77.7974 15.8777 77.9964 15.935C78.1954 15.9922 78.4188 16.0205 78.6665 16.0205C79.0002 16.0205 79.2892 15.9525 79.5328 15.8164C79.7771 15.6797 79.985 15.4869 80.1393 15.2541C80.2997 15.015 80.4195 14.7342 80.4987 14.4102C80.5778 14.087 80.6178 13.7374 80.6178 13.363V13.2384ZM83.7813 16.5H83.0503V7.40816H83.7813V16.5ZM89.9269 16.5C89.8812 16.3685 89.8494 16.2326 89.8321 16.0946C89.8095 15.9326 89.7941 15.7697 89.7861 15.6063C89.5445 15.9068 89.2383 16.1495 88.89 16.3168C88.4723 16.5193 88.0131 16.6225 87.5485 16.6185C87.2514 16.6221 86.9559 16.5761 86.6741 16.4825C86.4275 16.4005 86.1998 16.2707 86.004 16.1006C85.8214 15.9404 85.6748 15.7438 85.5735 15.5235C85.4707 15.2967 85.4188 15.0503 85.4212 14.8015C85.4212 14.4897 85.4903 14.2089 85.6284 13.9576C85.7737 13.7002 85.9785 13.4809 86.226 13.3179C86.4859 13.1427 86.802 13.0081 87.1735 12.9158C87.5841 12.8187 88.0051 12.7721 88.427 12.7771H89.7807V12.0484C89.7807 11.5904 89.6352 11.2301 89.3441 10.9681C89.0531 10.7055 88.6301 10.5741 88.0731 10.5741C87.8172 10.5741 87.5817 10.6078 87.3658 10.6752C87.1505 10.7425 86.9644 10.8348 86.8081 10.9533C86.6524 11.0712 86.5299 11.2085 86.4426 11.3641C86.3559 11.5168 86.3107 11.6892 86.3113 11.8645L85.5803 11.8584C85.5803 11.618 85.6412 11.385 85.763 11.1601C85.8849 10.9351 86.0561 10.7351 86.2774 10.5593C86.4994 10.3842 86.7654 10.2428 87.0761 10.1364C87.3874 10.03 87.7319 9.9761 88.1096 9.9761C88.4595 9.9761 88.7817 10.0199 89.0761 10.1067C89.3705 10.1936 89.6237 10.3236 89.8348 10.4974C90.0467 10.6711 90.2112 10.888 90.3289 11.1486C90.4467 11.4086 90.5056 11.713 90.5056 12.0598V15.1618C90.5056 15.2723 90.5096 15.3868 90.5178 15.5053C90.5259 15.6231 90.5394 15.7376 90.5577 15.8488C90.576 15.9585 90.597 16.0643 90.6213 16.1653C90.6457 16.2656 90.6741 16.3539 90.7066 16.4279V16.4993H89.9262L89.9269 16.5ZM87.6345 15.9909C87.8984 15.9909 88.1434 15.9585 88.3688 15.8932C88.5942 15.8279 88.7986 15.7383 88.9814 15.6238C89.1641 15.5093 89.3232 15.3766 89.4572 15.2244C89.5887 15.0764 89.6974 14.9098 89.78 14.7301V13.3212H88.5306C88.1563 13.3212 87.822 13.3542 87.5275 13.4189C87.265 13.4719 87.0129 13.5669 86.781 13.7004C86.5779 13.8223 86.4223 13.9718 86.314 14.1469C86.2058 14.3266 86.15 14.5328 86.1529 14.7422C86.152 14.9096 86.1872 15.0752 86.2561 15.2278C86.325 15.3805 86.426 15.5166 86.5522 15.6272C86.6808 15.7396 86.8358 15.8279 87.0192 15.8932C87.202 15.9585 87.4064 15.9909 87.6345 15.9909ZM94.5415 15.4817L96.4678 10.0953H97.2542L94.4623 17.5237C94.4055 17.6698 94.3331 17.8335 94.2457 18.0153C94.1578 18.1971 94.0447 18.3662 93.9039 18.5244C93.7555 18.6885 93.5779 18.8239 93.3801 18.9238C93.1703 19.0322 92.9158 19.0868 92.6153 19.0868C92.5747 19.0868 92.5273 19.0834 92.4745 19.078C92.3713 19.066 92.2686 19.0503 92.1665 19.0309C92.1288 19.023 92.0913 19.0141 92.0542 19.004L92.0474 18.418C92.1729 18.4373 92.2995 18.4489 92.4264 18.4531C92.6207 18.4531 92.7939 18.4288 92.9442 18.379C93.0945 18.3298 93.2258 18.2571 93.3368 18.1601C93.455 18.0559 93.5552 17.9331 93.6332 17.7964C93.7185 17.6503 93.7956 17.4826 93.8647 17.2933L94.1814 16.4468L91.6941 10.096H92.4928L94.5415 15.4817Z" fill="#295091"/>
<path d="M8.12207 26.1845V8.16447C8.12273 7.86513 8.20833 7.57205 8.36902 7.31898C8.52971 7.06592 8.75896 6.86315 9.03038 6.73402L19.6282 17.1715L9.02631 27.6122C8.75602 27.4828 8.52784 27.2802 8.36792 27.0277C8.20799 26.7752 8.12279 26.483 8.12207 26.1845ZM23.0123 20.5294L11.5062 26.9388L20.5805 18.1837L23.0123 20.5294ZM26.4784 16.2293C26.8398 16.5242 27.0733 16.9896 27.0733 17.5122C27.0733 18.0274 26.8472 18.4867 26.4946 18.7824L24.1859 20.2041L21.6587 17.5095L24.1839 14.8163L26.4784 16.2293ZM11.5062 7.40817L23.0123 13.8176L20.5811 16.1633L11.5062 7.40817ZM50.7623 13.8061C50.7623 15.5504 49.3951 16.8367 47.7166 16.8367C46.038 16.8367 44.6709 15.5504 44.6709 13.8061C44.6709 12.0484 46.038 10.7755 47.7166 10.7755C49.3951 10.7755 50.7623 12.0484 50.7623 13.8061ZM49.429 13.8061C49.429 12.7158 48.6371 11.9696 47.7166 11.9696C46.7961 11.9696 46.0042 12.7158 46.0042 13.8061C46.0042 14.8857 46.7961 15.6427 47.7166 15.6427C48.6371 15.6427 49.429 14.8844 49.429 13.8061ZM57.5306 13.8061C57.5306 15.5504 56.1634 16.8367 54.4849 16.8367C52.8063 16.8367 51.4391 15.5504 51.4391 13.8061C51.4391 12.0504 52.8063 10.7755 54.4849 10.7755C56.1634 10.7755 57.5306 12.0484 57.5306 13.8061ZM56.1973 13.8061C56.1973 12.7158 55.4054 11.9696 54.4849 11.9696C53.5644 11.9696 52.7725 12.7158 52.7725 13.8061C52.7725 14.8857 53.5644 15.6427 54.4849 15.6427C55.4054 15.6427 56.1973 14.8844 56.1973 13.8061ZM64.2989 10.958V16.3862C64.2989 18.6187 62.9148 19.5306 61.2789 19.5306C59.7391 19.5306 58.8118 18.5507 58.4626 17.7493L59.6775 17.2678C59.8941 17.7594 60.4234 18.3406 61.2775 18.3406C62.3246 18.3406 62.9737 17.7257 62.9737 16.5687V16.1336H62.9249C62.6129 16.5007 62.0112 16.8206 61.2518 16.8206C59.6633 16.8206 58.2074 15.5039 58.2074 13.8102C58.2074 12.1022 59.6626 10.7755 61.2518 10.7755C62.0099 10.7755 62.6116 11.0961 62.9249 11.4517H62.9737V10.96H64.2989V10.958ZM63.0725 13.8095C63.0725 12.7454 62.3259 11.9669 61.3764 11.9669C60.4139 11.9669 59.6071 12.7454 59.6071 13.8095C59.6071 14.8635 60.4139 15.6306 61.3764 15.6306C62.3259 15.6306 63.0725 14.8628 63.0725 13.8095ZM66.3294 8.08164V16.1633H64.9757V8.08164H66.3294ZM71.365 14.8049L72.3653 15.4938C72.0425 15.9868 71.2642 16.8367 69.9193 16.8367C68.2516 16.8367 67.0062 15.506 67.0062 13.8061C67.0062 12.0039 68.2624 10.7755 69.7744 10.7755C71.2987 10.7755 72.0439 12.0268 72.2868 12.7037L72.4209 13.0478L68.4966 14.7254C68.7971 15.3336 69.2641 15.644 69.9193 15.644C70.5758 15.644 71.0313 15.3107 71.365 14.8049ZM68.2847 13.7145L70.9081 12.5898C70.764 12.2114 70.3294 11.948 69.8184 11.948C69.1633 11.948 68.2516 12.5447 68.2847 13.7145ZM39.7747 12.6121V11.4153H43.9324C43.973 11.6241 43.994 11.8699 43.994 12.1373C43.994 13.0343 43.7409 14.1442 42.9253 14.9349C42.1327 15.7363 41.1182 16.1633 39.776 16.1633C37.288 16.1633 35.1952 14.1981 35.1952 11.7857C35.1952 9.37335 37.288 7.40817 39.776 7.40817C41.1527 7.40817 42.1334 7.93213 42.8705 8.61435L42.0001 9.45821C41.4715 8.97802 40.7554 8.60425 39.7747 8.60425C37.9581 8.60425 36.5367 10.0239 36.5367 11.7857C36.5367 13.5475 37.9581 14.9672 39.7747 14.9672C40.9537 14.9672 41.6251 14.5086 42.0549 14.0917C42.4035 13.7536 42.6329 13.27 42.7236 12.61L39.7747 12.6121Z" fill="#295091"/>
</svg>
