<svg width="32" height="32" viewBox="0 0 32 32" fill="none" xmlns="http://www.w3.org/2000/svg">
<path fill-rule="evenodd" clip-rule="evenodd" d="M16.001 0C7.163 0 0 7.164 0 16.001C0 24.837 7.163 32 16.001 32C24.837 32 32 24.837 32 16.001C32 7.164 24.837 0 16.001 0ZM16.023 4.866C19.14 4.874 21.64 7.424 21.624 10.574C21.61 13.653 19.067 16.148 15.956 16.137C12.876 16.127 10.35 13.573 10.369 10.489C10.3743 8.99394 10.9727 7.56209 12.0327 6.50783C13.0928 5.45357 14.5279 4.86308 16.023 4.866ZM22.336 18.351C21.646 19.059 20.817 19.571 19.895 19.928C19.025 20.265 18.071 20.435 17.126 20.548C17.268 20.704 17.336 20.78 17.426 20.87C18.707 22.158 19.996 23.44 21.272 24.733C21.707 25.173 21.799 25.72 21.559 26.231C21.297 26.791 20.709 27.16 20.134 27.12C19.77 27.094 19.485 26.914 19.233 26.66C18.266 25.686 17.28 24.729 16.332 23.738C16.055 23.448 15.922 23.504 15.679 23.754C14.7042 24.7548 13.7185 25.7449 12.722 26.724C12.275 27.164 11.744 27.244 11.225 26.992C10.675 26.725 10.323 26.164 10.35 25.598C10.37 25.216 10.558 24.923 10.82 24.662C12.09 23.395 13.354 22.124 14.62 20.856C14.705 20.771 14.783 20.681 14.904 20.55C13.178 20.371 11.621 19.946 10.288 18.904C10.123 18.774 9.952 18.648 9.802 18.504C9.218 17.944 9.159 17.302 9.622 16.64C10.016 16.074 10.678 15.924 11.367 16.249C11.501 16.311 11.627 16.391 11.751 16.474C14.233 18.181 17.646 18.228 20.138 16.551C20.3784 16.3556 20.6565 16.2119 20.955 16.129C21.551 15.975 22.105 16.194 22.424 16.716C22.789 17.31 22.784 17.89 22.336 18.351Z" fill="#295091"/>
<path fill-rule="evenodd" clip-rule="evenodd" d="M15.8898 12.754C16.248 12.7541 16.6026 12.6833 16.9333 12.5457C17.2639 12.408 17.564 12.2062 17.8163 11.9519C18.0685 11.6976 18.2679 11.3959 18.4029 11.0641C18.5379 10.7324 18.6058 10.3772 18.6028 10.019C18.6037 9.66081 18.5338 9.30596 18.3971 8.97487C18.2605 8.64377 18.0597 8.34296 17.8064 8.08972C17.553 7.83649 17.2521 7.63582 16.921 7.49926C16.5898 7.3627 16.235 7.29295 15.8768 7.294C15.5154 7.29265 15.1573 7.36324 14.8235 7.50168C14.4897 7.64011 14.1867 7.84361 13.9324 8.10032C13.678 8.35702 13.4772 8.6618 13.3419 8.99688C13.2065 9.33196 13.1391 9.69064 13.1438 10.052C13.1459 10.41 13.2187 10.7641 13.358 11.094C13.4974 11.4238 13.7005 11.7228 13.9558 11.9739C14.211 12.225 14.5134 12.4231 14.8454 12.557C15.1775 12.6909 15.5328 12.7578 15.8908 12.754H15.8898Z" fill="#295091"/>
</svg>
