<svg width="31" height="31" viewBox="0 0 31 31" fill="none" xmlns="http://www.w3.org/2000/svg">
<path d="M15.5 0.484375C7.20459 0.484375 0.484375 7.20556 0.484375 15.5C0.484375 23.7944 7.20556 30.5156 15.5 30.5156C23.7954 30.5156 30.5156 23.7944 30.5156 15.5C30.5156 7.20556 23.7944 0.484375 15.5 0.484375ZM22.8751 10.7715L20.4106 22.3849C20.2285 23.2083 19.7383 23.4079 19.0543 23.0204L15.3004 20.2537L13.4898 21.9974C13.2903 22.197 13.1208 22.3665 12.7332 22.3665L12.9997 18.5457L19.9563 12.2605C20.2595 11.9941 19.8894 11.843 19.4893 12.1094L10.8917 17.5218L7.18619 16.3651C6.38116 16.1113 6.36275 15.5601 7.35572 15.1726L21.8327 9.58966C22.505 9.34747 23.0921 9.75338 22.8741 10.7706L22.8751 10.7715Z" fill="white"/>
</svg>
