<svg width="32" height="33" viewBox="0 0 32 33" fill="none" xmlns="http://www.w3.org/2000/svg">
<path fill-rule="evenodd" clip-rule="evenodd" d="M15.887 0.223999C7.128 0.223999 0 7.396 0 16.209C0 25.024 7.128 32.196 15.887 32.196C24.65 32.196 31.778 25.024 31.778 16.209C31.778 7.396 24.65 0.223999 15.888 0.223999H15.887ZM22.978 12.552C22.984 12.709 22.988 12.869 22.988 13.03C22.988 17.89 19.31 23.496 12.582 23.496C10.5924 23.4992 8.64466 22.925 6.975 21.843C7.93338 21.9596 8.90537 21.8851 9.8348 21.6238C10.7642 21.3626 11.6327 20.9198 12.39 20.321C11.6251 20.3046 10.8845 20.0492 10.2721 19.5906C9.65969 19.132 9.20612 18.4933 8.975 17.764C9.52243 17.8714 10.0873 17.8498 10.625 17.701C9.79516 17.5306 9.04971 17.0787 8.51485 16.4217C7.97999 15.7648 7.6886 14.9431 7.69 14.096C7.69 14.08 7.69 14.064 7.694 14.048C8.184 14.325 8.75 14.488 9.35 14.508C8.84775 14.1706 8.43643 13.7146 8.15247 13.1803C7.8685 12.6461 7.72065 12.05 7.722 11.445C7.722 10.772 7.903 10.141 8.216 9.597C9.13122 10.7319 10.2756 11.6608 11.5743 12.3232C12.8731 12.9856 14.297 13.3665 15.753 13.441C15.6899 13.1658 15.6584 12.8843 15.659 12.602C15.659 10.572 17.297 8.924 19.316 8.924C19.8166 8.92351 20.3119 9.02627 20.7709 9.22586C21.23 9.42545 21.643 9.71759 21.984 10.084C22.8053 9.9237 23.5924 9.62152 24.31 9.191C24.0377 10.0426 23.4657 10.7664 22.7 11.228C23.4252 11.1427 24.1333 10.9479 24.8 10.65C24.3102 11.387 23.6933 12.031 22.978 12.552Z" fill="#295091"/>
</svg>
